solid OpenSCAD_Model
  facet normal 1 -0 0
    outer loop
      vertex 100 0 7
      vertex 100 80 0
      vertex 100 80 7
    endloop
  endfacet
  facet normal 1 0 0
    outer loop
      vertex 100 80 0
      vertex 100 0 7
      vertex 100 0 0
    endloop
  endfacet
  facet normal 0 0 1
    outer loop
      vertex 100 80 7
      vertex 50 55 7
      vertex 100 0 7
    endloop
  endfacet
  facet normal -0 0 1
    outer loop
      vertex 10 80 7
      vertex 50 55 7
      vertex 100 80 7
    endloop
  endfacet
  facet normal 0 0 1
    outer loop
      vertex 50 55 7
      vertex 10 80 7
      vertex 10 55 7
    endloop
  endfacet
  facet normal -0 0 1
    outer loop
      vertex 50 25 7
      vertex 100 0 7
      vertex 50 55 7
    endloop
  endfacet
  facet normal 0 0 1
    outer loop
      vertex 10 0 7
      vertex 50 25 7
      vertex 10 25 7
    endloop
  endfacet
  facet normal 0 0 1
    outer loop
      vertex 50 25 7
      vertex 10 0 7
      vertex 100 0 7
    endloop
  endfacet
  facet normal 0 0 -1
    outer loop
      vertex 0 0 0
      vertex 100 80 0
      vertex 100 0 0
    endloop
  endfacet
  facet normal -0 0 -1
    outer loop
      vertex 100 80 0
      vertex 0 0 0
      vertex 0 80 0
    endloop
  endfacet
  facet normal -1 0 0
    outer loop
      vertex 0 80 0
      vertex 0 73 12
      vertex 0 80 24
    endloop
  endfacet
  facet normal -1 0 0
    outer loop
      vertex 0 80 0
      vertex 0 50 5
      vertex 0 73 12
    endloop
  endfacet
  facet normal -1 0 0
    outer loop
      vertex 0 80 0
      vertex 0 30 5
      vertex 0 50 5
    endloop
  endfacet
  facet normal -1 0 0
    outer loop
      vertex 0 7 12
      vertex 0 30 10
      vertex 0 30 5
    endloop
  endfacet
  facet normal -1 0 0
    outer loop
      vertex 0 30 10
      vertex 0 7 12
      vertex 0 30 12
    endloop
  endfacet
  facet normal -1 0 0
    outer loop
      vertex 0 0 0
      vertex 0 30 5
      vertex 0 80 0
    endloop
  endfacet
  facet normal -1 0 0
    outer loop
      vertex 0 0 0
      vertex 0 7 12
      vertex 0 30 5
    endloop
  endfacet
  facet normal -1 0 0
    outer loop
      vertex 0 0 24
      vertex 0 7 12
      vertex 0 0 0
    endloop
  endfacet
  facet normal -1 0 0
    outer loop
      vertex 0 7 12
      vertex 0 0 24
      vertex 0 7 24
    endloop
  endfacet
  facet normal -1 -0 0
    outer loop
      vertex 0 80 24
      vertex 0 73 12
      vertex 0 73 24
    endloop
  endfacet
  facet normal -1 0 0
    outer loop
      vertex 0 50 10
      vertex 0 73 12
      vertex 0 50 5
    endloop
  endfacet
  facet normal -1 0 0
    outer loop
      vertex 0 50 10
      vertex 0 50 12
      vertex 0 73 12
    endloop
  endfacet
  facet normal -1 0 0
    outer loop
      vertex 0 30 12
      vertex 0 50 12
      vertex 0 50 10
    endloop
  endfacet
  facet normal -1 0 0
    outer loop
      vertex 0 30 12
      vertex 0 50 10
      vertex 0 30 10
    endloop
  endfacet
  facet normal -1 0 0
    outer loop
      vertex 0 50 12
      vertex 0 30 12
      vertex 0 50 24
    endloop
  endfacet
  facet normal -1 -0 0
    outer loop
      vertex 0 50 24
      vertex 0 30 12
      vertex 0 30 24
    endloop
  endfacet
  facet normal 0 1 0
    outer loop
      vertex 100 80 7
      vertex 100 80 0
      vertex 10 80 7
    endloop
  endfacet
  facet normal 0 1 -0
    outer loop
      vertex 10 80 7
      vertex 0 80 24
      vertex 10 80 24
    endloop
  endfacet
  facet normal 0 1 0
    outer loop
      vertex 10 80 7
      vertex 0 80 0
      vertex 0 80 24
    endloop
  endfacet
  facet normal 0 1 0
    outer loop
      vertex 0 80 0
      vertex 10 80 7
      vertex 100 80 0
    endloop
  endfacet
  facet normal 0 -1 0
    outer loop
      vertex 0 0 24
      vertex 10 0 7
      vertex 10 0 24
    endloop
  endfacet
  facet normal 0 -1 0
    outer loop
      vertex 0 0 0
      vertex 10 0 7
      vertex 0 0 24
    endloop
  endfacet
  facet normal 0 -1 0
    outer loop
      vertex 100 0 0
      vertex 10 0 7
      vertex 0 0 0
    endloop
  endfacet
  facet normal 0 -1 0
    outer loop
      vertex 10 0 7
      vertex 100 0 0
      vertex 100 0 7
    endloop
  endfacet
  facet normal -1 0 0
    outer loop
      vertex 50 25 5
      vertex 50 55 7
      vertex 50 55 5
    endloop
  endfacet
  facet normal -1 -0 0
    outer loop
      vertex 50 55 7
      vertex 50 25 5
      vertex 50 25 7
    endloop
  endfacet
  facet normal -0 0 1
    outer loop
      vertex 0 50 5
      vertex 10 30 5
      vertex 10 50 5
    endloop
  endfacet
  facet normal 0 0 1
    outer loop
      vertex 10 30 5
      vertex 0 50 5
      vertex 0 30 5
    endloop
  endfacet
  facet normal 0 0 1
    outer loop
      vertex 10 50 5
      vertex 50 55 5
      vertex 10 55 5
    endloop
  endfacet
  facet normal 0 0 1
    outer loop
      vertex 50 55 5
      vertex 10 50 5
      vertex 50 25 5
    endloop
  endfacet
  facet normal -0 0 1
    outer loop
      vertex 10 30 5
      vertex 50 25 5
      vertex 10 50 5
    endloop
  endfacet
  facet normal 0 0 1
    outer loop
      vertex 50 25 5
      vertex 10 30 5
      vertex 10 25 5
    endloop
  endfacet
  facet normal 0 -1 0
    outer loop
      vertex 10 55 5
      vertex 50 55 7
      vertex 10 55 7
    endloop
  endfacet
  facet normal 0 -1 -0
    outer loop
      vertex 50 55 7
      vertex 10 55 5
      vertex 50 55 5
    endloop
  endfacet
  facet normal 0 1 -0
    outer loop
      vertex 50 25 5
      vertex 10 25 7
      vertex 50 25 7
    endloop
  endfacet
  facet normal 0 1 0
    outer loop
      vertex 10 25 7
      vertex 50 25 5
      vertex 10 25 5
    endloop
  endfacet
  facet normal 1 0 0
    outer loop
      vertex 10 7 24
      vertex 10 0 24
      vertex 10 7 12
    endloop
  endfacet
  facet normal 1 0 0
    outer loop
      vertex 10 73 12
      vertex 10 80 24
      vertex 10 73 24
    endloop
  endfacet
  facet normal 1 0 0
    outer loop
      vertex 10 80 24
      vertex 10 73 12
      vertex 10 80 7
    endloop
  endfacet
  facet normal 1 0 0
    outer loop
      vertex 10 73 12
      vertex 10 55 7
      vertex 10 80 7
    endloop
  endfacet
  facet normal 1 -0 0
    outer loop
      vertex 10 50 12
      vertex 10 55 7
      vertex 10 73 12
    endloop
  endfacet
  facet normal 1 -0 0
    outer loop
      vertex 10 50 10
      vertex 10 55 7
      vertex 10 50 12
    endloop
  endfacet
  facet normal 1 0 0
    outer loop
      vertex 10 50 5
      vertex 10 55 7
      vertex 10 50 10
    endloop
  endfacet
  facet normal 1 0 0
    outer loop
      vertex 10 55 7
      vertex 10 50 5
      vertex 10 55 5
    endloop
  endfacet
  facet normal 1 0 0
    outer loop
      vertex 10 30 12
      vertex 10 50 12
      vertex 10 50 24
    endloop
  endfacet
  facet normal 1 0 0
    outer loop
      vertex 10 30 12
      vertex 10 50 24
      vertex 10 30 24
    endloop
  endfacet
  facet normal 1 0 0
    outer loop
      vertex 10 50 12
      vertex 10 30 12
      vertex 10 50 10
    endloop
  endfacet
  facet normal 1 0 0
    outer loop
      vertex 10 30 12
      vertex 10 30 10
      vertex 10 50 10
    endloop
  endfacet
  facet normal 1 0 0
    outer loop
      vertex 10 25 7
      vertex 10 30 10
      vertex 10 30 12
    endloop
  endfacet
  facet normal 1 0 0
    outer loop
      vertex 10 30 10
      vertex 10 25 7
      vertex 10 30 5
    endloop
  endfacet
  facet normal 1 -0 0
    outer loop
      vertex 10 7 12
      vertex 10 25 7
      vertex 10 30 12
    endloop
  endfacet
  facet normal 1 0 0
    outer loop
      vertex 10 7 12
      vertex 10 0 7
      vertex 10 25 7
    endloop
  endfacet
  facet normal 1 0 0
    outer loop
      vertex 10 0 7
      vertex 10 7 12
      vertex 10 0 24
    endloop
  endfacet
  facet normal 1 0 0
    outer loop
      vertex 10 30 5
      vertex 10 25 7
      vertex 10 25 5
    endloop
  endfacet
  facet normal -0 0 1
    outer loop
      vertex 0 80 24
      vertex 10 73 24
      vertex 10 80 24
    endloop
  endfacet
  facet normal 0 0 1
    outer loop
      vertex 10 73 24
      vertex 0 80 24
      vertex 0 73 24
    endloop
  endfacet
  facet normal -0 0 1
    outer loop
      vertex 0 7 24
      vertex 10 0 24
      vertex 10 7 24
    endloop
  endfacet
  facet normal 0 0 1
    outer loop
      vertex 10 0 24
      vertex 0 7 24
      vertex 0 0 24
    endloop
  endfacet
  facet normal -0 0 1
    outer loop
      vertex 0 50 24
      vertex 10 30 24
      vertex 10 50 24
    endloop
  endfacet
  facet normal 0 0 1
    outer loop
      vertex 10 30 24
      vertex 0 50 24
      vertex 0 30 24
    endloop
  endfacet
  facet normal 0 0 -1
    outer loop
      vertex 0 30 10
      vertex 10 50 10
      vertex 10 30 10
    endloop
  endfacet
  facet normal -0 0 -1
    outer loop
      vertex 10 50 10
      vertex 0 30 10
      vertex 0 50 10
    endloop
  endfacet
  facet normal 0 -1 0
    outer loop
      vertex 0 50 5
      vertex 10 50 10
      vertex 0 50 10
    endloop
  endfacet
  facet normal 0 -1 -0
    outer loop
      vertex 10 50 10
      vertex 0 50 5
      vertex 10 50 5
    endloop
  endfacet
  facet normal 0 1 -0
    outer loop
      vertex 10 30 5
      vertex 0 30 10
      vertex 10 30 10
    endloop
  endfacet
  facet normal 0 1 0
    outer loop
      vertex 0 30 10
      vertex 10 30 5
      vertex 0 30 5
    endloop
  endfacet
  facet normal -0 0 1
    outer loop
      vertex 0 30 12
      vertex 10 7 12
      vertex 10 30 12
    endloop
  endfacet
  facet normal 0 0 1
    outer loop
      vertex 10 7 12
      vertex 0 30 12
      vertex 0 7 12
    endloop
  endfacet
  facet normal 0 -1 0
    outer loop
      vertex 0 30 12
      vertex 10 30 24
      vertex 0 30 24
    endloop
  endfacet
  facet normal 0 -1 -0
    outer loop
      vertex 10 30 24
      vertex 0 30 12
      vertex 10 30 12
    endloop
  endfacet
  facet normal 0 1 -0
    outer loop
      vertex 10 7 12
      vertex 0 7 24
      vertex 10 7 24
    endloop
  endfacet
  facet normal 0 1 0
    outer loop
      vertex 0 7 24
      vertex 10 7 12
      vertex 0 7 12
    endloop
  endfacet
  facet normal -0 0 1
    outer loop
      vertex 0 73 12
      vertex 10 50 12
      vertex 10 73 12
    endloop
  endfacet
  facet normal 0 0 1
    outer loop
      vertex 10 50 12
      vertex 0 73 12
      vertex 0 50 12
    endloop
  endfacet
  facet normal 0 -1 0
    outer loop
      vertex 0 73 12
      vertex 10 73 24
      vertex 0 73 24
    endloop
  endfacet
  facet normal 0 -1 -0
    outer loop
      vertex 10 73 24
      vertex 0 73 12
      vertex 10 73 12
    endloop
  endfacet
  facet normal 0 1 -0
    outer loop
      vertex 10 50 12
      vertex 0 50 24
      vertex 10 50 24
    endloop
  endfacet
  facet normal 0 1 0
    outer loop
      vertex 0 50 24
      vertex 10 50 12
      vertex 0 50 12
    endloop
  endfacet
endsolid OpenSCAD_Model
