solid OpenSCAD_Model
  facet normal 1 0 0
    outer loop
      vertex 10 7 28
      vertex 10 0 28
      vertex 10 7 12
    endloop
  endfacet
  facet normal 1 0 0
    outer loop
      vertex 10 73 12
      vertex 10 80 28
      vertex 10 73 28
    endloop
  endfacet
  facet normal 1 0 0
    outer loop
      vertex 10 80 28
      vertex 10 73 12
      vertex 10 80 7
    endloop
  endfacet
  facet normal 1 0 0
    outer loop
      vertex 10 73 12
      vertex 10 55 7
      vertex 10 80 7
    endloop
  endfacet
  facet normal 1 -0 0
    outer loop
      vertex 10 50 12
      vertex 10 55 7
      vertex 10 73 12
    endloop
  endfacet
  facet normal 1 -0 0
    outer loop
      vertex 10 50 10
      vertex 10 55 7
      vertex 10 50 12
    endloop
  endfacet
  facet normal 1 0 0
    outer loop
      vertex 10 50 2
      vertex 10 55 7
      vertex 10 50 10
    endloop
  endfacet
  facet normal 1 0 0
    outer loop
      vertex 10 55 7
      vertex 10 50 2
      vertex 10 55 2
    endloop
  endfacet
  facet normal 1 0 0
    outer loop
      vertex 10 30 12
      vertex 10 50 12
      vertex 10 50 28
    endloop
  endfacet
  facet normal 1 0 0
    outer loop
      vertex 10 30 12
      vertex 10 50 28
      vertex 10 30 28
    endloop
  endfacet
  facet normal 1 0 0
    outer loop
      vertex 10 50 12
      vertex 10 30 12
      vertex 10 50 10
    endloop
  endfacet
  facet normal 1 0 0
    outer loop
      vertex 10 30 12
      vertex 10 30 10
      vertex 10 50 10
    endloop
  endfacet
  facet normal 1 0 0
    outer loop
      vertex 10 25 7
      vertex 10 30 10
      vertex 10 30 12
    endloop
  endfacet
  facet normal 1 0 0
    outer loop
      vertex 10 30 10
      vertex 10 25 7
      vertex 10 30 2
    endloop
  endfacet
  facet normal 1 -0 0
    outer loop
      vertex 10 7 12
      vertex 10 25 7
      vertex 10 30 12
    endloop
  endfacet
  facet normal 1 0 0
    outer loop
      vertex 10 7 12
      vertex 10 0 7
      vertex 10 25 7
    endloop
  endfacet
  facet normal 1 0 0
    outer loop
      vertex 10 0 7
      vertex 10 7 12
      vertex 10 0 28
    endloop
  endfacet
  facet normal 1 0 0
    outer loop
      vertex 10 30 2
      vertex 10 25 7
      vertex 10 25 2
    endloop
  endfacet
  facet normal -0 0 1
    outer loop
      vertex 0 80 28
      vertex 10 73 28
      vertex 10 80 28
    endloop
  endfacet
  facet normal 0 0 1
    outer loop
      vertex 10 73 28
      vertex 0 80 28
      vertex 0 73 28
    endloop
  endfacet
  facet normal -0 0 1
    outer loop
      vertex 0 7 28
      vertex 10 0 28
      vertex 10 7 28
    endloop
  endfacet
  facet normal 0 0 1
    outer loop
      vertex 10 0 28
      vertex 0 7 28
      vertex 0 0 28
    endloop
  endfacet
  facet normal -0 0 1
    outer loop
      vertex 0 50 28
      vertex 10 30 28
      vertex 10 50 28
    endloop
  endfacet
  facet normal 0 0 1
    outer loop
      vertex 10 30 28
      vertex 0 50 28
      vertex 0 30 28
    endloop
  endfacet
  facet normal 0 0 -1
    outer loop
      vertex 0 0 0
      vertex 100 80 0
      vertex 100 0 0
    endloop
  endfacet
  facet normal -0 0 -1
    outer loop
      vertex 100 80 0
      vertex 0 0 0
      vertex 0 80 0
    endloop
  endfacet
  facet normal -1 0 0
    outer loop
      vertex 0 80 0
      vertex 0 73 12
      vertex 0 80 28
    endloop
  endfacet
  facet normal -1 0 0
    outer loop
      vertex 0 80 0
      vertex 0 50 2
      vertex 0 73 12
    endloop
  endfacet
  facet normal -1 0 0
    outer loop
      vertex 0 80 0
      vertex 0 30 2
      vertex 0 50 2
    endloop
  endfacet
  facet normal -1 0 0
    outer loop
      vertex 0 7 12
      vertex 0 30 10
      vertex 0 30 2
    endloop
  endfacet
  facet normal -1 0 0
    outer loop
      vertex 0 30 10
      vertex 0 7 12
      vertex 0 30 12
    endloop
  endfacet
  facet normal -1 0 0
    outer loop
      vertex 0 0 0
      vertex 0 30 2
      vertex 0 80 0
    endloop
  endfacet
  facet normal -1 0 0
    outer loop
      vertex 0 0 0
      vertex 0 7 12
      vertex 0 30 2
    endloop
  endfacet
  facet normal -1 0 0
    outer loop
      vertex 0 0 28
      vertex 0 7 12
      vertex 0 0 0
    endloop
  endfacet
  facet normal -1 0 0
    outer loop
      vertex 0 7 12
      vertex 0 0 28
      vertex 0 7 28
    endloop
  endfacet
  facet normal -1 -0 0
    outer loop
      vertex 0 80 28
      vertex 0 73 12
      vertex 0 73 28
    endloop
  endfacet
  facet normal -1 0 0
    outer loop
      vertex 0 50 10
      vertex 0 73 12
      vertex 0 50 2
    endloop
  endfacet
  facet normal -1 0 0
    outer loop
      vertex 0 50 10
      vertex 0 50 12
      vertex 0 73 12
    endloop
  endfacet
  facet normal -1 0 0
    outer loop
      vertex 0 30 12
      vertex 0 50 12
      vertex 0 50 10
    endloop
  endfacet
  facet normal -1 0 0
    outer loop
      vertex 0 30 12
      vertex 0 50 10
      vertex 0 30 10
    endloop
  endfacet
  facet normal -1 0 0
    outer loop
      vertex 0 50 12
      vertex 0 30 12
      vertex 0 50 28
    endloop
  endfacet
  facet normal -1 -0 0
    outer loop
      vertex 0 50 28
      vertex 0 30 12
      vertex 0 30 28
    endloop
  endfacet
  facet normal 0 1 0
    outer loop
      vertex 100 80 7
      vertex 100 80 0
      vertex 10 80 7
    endloop
  endfacet
  facet normal 0 1 -0
    outer loop
      vertex 10 80 7
      vertex 0 80 28
      vertex 10 80 28
    endloop
  endfacet
  facet normal 0 1 0
    outer loop
      vertex 10 80 7
      vertex 0 80 0
      vertex 0 80 28
    endloop
  endfacet
  facet normal 0 1 0
    outer loop
      vertex 0 80 0
      vertex 10 80 7
      vertex 100 80 0
    endloop
  endfacet
  facet normal 0 -1 0
    outer loop
      vertex 0 0 28
      vertex 10 0 7
      vertex 10 0 28
    endloop
  endfacet
  facet normal 0 -1 0
    outer loop
      vertex 0 0 0
      vertex 10 0 7
      vertex 0 0 28
    endloop
  endfacet
  facet normal 0 -1 0
    outer loop
      vertex 100 0 0
      vertex 10 0 7
      vertex 0 0 0
    endloop
  endfacet
  facet normal 0 -1 0
    outer loop
      vertex 10 0 7
      vertex 100 0 0
      vertex 100 0 7
    endloop
  endfacet
  facet normal 0 0 -1
    outer loop
      vertex 0 30 10
      vertex 10 50 10
      vertex 10 30 10
    endloop
  endfacet
  facet normal -0 0 -1
    outer loop
      vertex 10 50 10
      vertex 0 30 10
      vertex 0 50 10
    endloop
  endfacet
  facet normal 0 -1 0
    outer loop
      vertex 0 50 2
      vertex 10 50 10
      vertex 0 50 10
    endloop
  endfacet
  facet normal 0 -1 -0
    outer loop
      vertex 10 50 10
      vertex 0 50 2
      vertex 10 50 2
    endloop
  endfacet
  facet normal 0 1 -0
    outer loop
      vertex 10 30 2
      vertex 0 30 10
      vertex 10 30 10
    endloop
  endfacet
  facet normal 0 1 0
    outer loop
      vertex 0 30 10
      vertex 10 30 2
      vertex 0 30 2
    endloop
  endfacet
  facet normal -0 0 1
    outer loop
      vertex 0 30 12
      vertex 10 7 12
      vertex 10 30 12
    endloop
  endfacet
  facet normal 0 0 1
    outer loop
      vertex 10 7 12
      vertex 0 30 12
      vertex 0 7 12
    endloop
  endfacet
  facet normal 0 -1 0
    outer loop
      vertex 0 30 12
      vertex 10 30 28
      vertex 0 30 28
    endloop
  endfacet
  facet normal 0 -1 -0
    outer loop
      vertex 10 30 28
      vertex 0 30 12
      vertex 10 30 12
    endloop
  endfacet
  facet normal 0 1 -0
    outer loop
      vertex 10 7 12
      vertex 0 7 28
      vertex 10 7 28
    endloop
  endfacet
  facet normal 0 1 0
    outer loop
      vertex 0 7 28
      vertex 10 7 12
      vertex 0 7 12
    endloop
  endfacet
  facet normal -0 0 1
    outer loop
      vertex 0 73 12
      vertex 10 50 12
      vertex 10 73 12
    endloop
  endfacet
  facet normal 0 0 1
    outer loop
      vertex 10 50 12
      vertex 0 73 12
      vertex 0 50 12
    endloop
  endfacet
  facet normal 0 -1 0
    outer loop
      vertex 0 73 12
      vertex 10 73 28
      vertex 0 73 28
    endloop
  endfacet
  facet normal 0 -1 -0
    outer loop
      vertex 10 73 28
      vertex 0 73 12
      vertex 10 73 12
    endloop
  endfacet
  facet normal 0 1 -0
    outer loop
      vertex 10 50 12
      vertex 0 50 28
      vertex 10 50 28
    endloop
  endfacet
  facet normal 0 1 0
    outer loop
      vertex 0 50 28
      vertex 10 50 12
      vertex 0 50 12
    endloop
  endfacet
  facet normal 1 -0 0
    outer loop
      vertex 100 0 7
      vertex 100 80 0
      vertex 100 80 7
    endloop
  endfacet
  facet normal 1 0 0
    outer loop
      vertex 100 80 0
      vertex 100 0 7
      vertex 100 0 0
    endloop
  endfacet
  facet normal 0 0 1
    outer loop
      vertex 100 80 7
      vertex 70 55 7
      vertex 100 0 7
    endloop
  endfacet
  facet normal -0 0 1
    outer loop
      vertex 10 80 7
      vertex 70 55 7
      vertex 100 80 7
    endloop
  endfacet
  facet normal 0 0 1
    outer loop
      vertex 70 55 7
      vertex 10 80 7
      vertex 10 55 7
    endloop
  endfacet
  facet normal -0 0 1
    outer loop
      vertex 70 25 7
      vertex 100 0 7
      vertex 70 55 7
    endloop
  endfacet
  facet normal 0 0 1
    outer loop
      vertex 10 0 7
      vertex 70 25 7
      vertex 10 25 7
    endloop
  endfacet
  facet normal 0 0 1
    outer loop
      vertex 70 25 7
      vertex 10 0 7
      vertex 100 0 7
    endloop
  endfacet
  facet normal -1 0 0
    outer loop
      vertex 70 25 2
      vertex 70 55 7
      vertex 70 55 2
    endloop
  endfacet
  facet normal -1 -0 0
    outer loop
      vertex 70 55 7
      vertex 70 25 2
      vertex 70 25 7
    endloop
  endfacet
  facet normal -0 0 1
    outer loop
      vertex 0 50 2
      vertex 10 30 2
      vertex 10 50 2
    endloop
  endfacet
  facet normal 0 0 1
    outer loop
      vertex 10 30 2
      vertex 0 50 2
      vertex 0 30 2
    endloop
  endfacet
  facet normal 0 0 1
    outer loop
      vertex 10 50 2
      vertex 70 55 2
      vertex 10 55 2
    endloop
  endfacet
  facet normal 0 0 1
    outer loop
      vertex 70 55 2
      vertex 10 50 2
      vertex 70 25 2
    endloop
  endfacet
  facet normal -0 0 1
    outer loop
      vertex 10 30 2
      vertex 70 25 2
      vertex 10 50 2
    endloop
  endfacet
  facet normal 0 0 1
    outer loop
      vertex 70 25 2
      vertex 10 30 2
      vertex 10 25 2
    endloop
  endfacet
  facet normal 0 -1 0
    outer loop
      vertex 10 55 2
      vertex 70 55 7
      vertex 10 55 7
    endloop
  endfacet
  facet normal 0 -1 -0
    outer loop
      vertex 70 55 7
      vertex 10 55 2
      vertex 70 55 2
    endloop
  endfacet
  facet normal 0 1 -0
    outer loop
      vertex 70 25 2
      vertex 10 25 7
      vertex 70 25 7
    endloop
  endfacet
  facet normal 0 1 0
    outer loop
      vertex 10 25 7
      vertex 70 25 2
      vertex 10 25 2
    endloop
  endfacet
endsolid OpenSCAD_Model
