solid OpenSCAD_Model
  facet normal 1 -0 0
    outer loop
      vertex 100 0 7
      vertex 100 80 0
      vertex 100 80 7
    endloop
  endfacet
  facet normal 1 0 0
    outer loop
      vertex 100 80 0
      vertex 100 0 7
      vertex 100 0 0
    endloop
  endfacet
  facet normal 0 0 1
    outer loop
      vertex 100 80 7
      vertex 65 55 7
      vertex 100 0 7
    endloop
  endfacet
  facet normal -0 0 1
    outer loop
      vertex 10 80 7
      vertex 65 55 7
      vertex 100 80 7
    endloop
  endfacet
  facet normal 0 0 1
    outer loop
      vertex 65 55 7
      vertex 10 80 7
      vertex 10 55 7
    endloop
  endfacet
  facet normal -0 0 1
    outer loop
      vertex 65 25 7
      vertex 100 0 7
      vertex 65 55 7
    endloop
  endfacet
  facet normal 0 0 1
    outer loop
      vertex 10 0 7
      vertex 65 25 7
      vertex 10 25 7
    endloop
  endfacet
  facet normal 0 0 1
    outer loop
      vertex 65 25 7
      vertex 10 0 7
      vertex 100 0 7
    endloop
  endfacet
  facet normal 0 0 -1
    outer loop
      vertex 0 0 0
      vertex 100 80 0
      vertex 100 0 0
    endloop
  endfacet
  facet normal -0 0 -1
    outer loop
      vertex 100 80 0
      vertex 0 0 0
      vertex 0 80 0
    endloop
  endfacet
  facet normal -1 0 0
    outer loop
      vertex 0 80 0
      vertex 0 76 12
      vertex 0 80 28
    endloop
  endfacet
  facet normal -1 0 0
    outer loop
      vertex 0 80 0
      vertex 0 54 2
      vertex 0 76 12
    endloop
  endfacet
  facet normal -1 0 0
    outer loop
      vertex 0 80 0
      vertex 0 26 2
      vertex 0 54 2
    endloop
  endfacet
  facet normal -1 0 0
    outer loop
      vertex 0 26 2
      vertex 0 4 12
      vertex 0 26 10
    endloop
  endfacet
  facet normal -1 0 0
    outer loop
      vertex 0 0 0
      vertex 0 26 2
      vertex 0 80 0
    endloop
  endfacet
  facet normal -1 0 0
    outer loop
      vertex 0 0 0
      vertex 0 4 12
      vertex 0 26 2
    endloop
  endfacet
  facet normal -1 0 0
    outer loop
      vertex 0 0 28
      vertex 0 4 12
      vertex 0 0 0
    endloop
  endfacet
  facet normal -1 0 0
    outer loop
      vertex 0 4 12
      vertex 0 0 28
      vertex 0 4 28
    endloop
  endfacet
  facet normal -1 -0 0
    outer loop
      vertex 0 80 28
      vertex 0 76 12
      vertex 0 76 28
    endloop
  endfacet
  facet normal -1 0 0
    outer loop
      vertex 0 54 10
      vertex 0 76 12
      vertex 0 54 2
    endloop
  endfacet
  facet normal -1 0 0
    outer loop
      vertex 0 54 10
      vertex 0 53 12
      vertex 0 76 12
    endloop
  endfacet
  facet normal -1 0 0
    outer loop
      vertex 0 53 12
      vertex 0 27 12
      vertex 0 53 28
    endloop
  endfacet
  facet normal -1 0 0
    outer loop
      vertex 0 54 10
      vertex 0 27 12
      vertex 0 53 12
    endloop
  endfacet
  facet normal -1 0 0
    outer loop
      vertex 0 26 10
      vertex 0 27 12
      vertex 0 54 10
    endloop
  endfacet
  facet normal -1 -0 0
    outer loop
      vertex 0 27 12
      vertex 0 26 10
      vertex 0 4 12
    endloop
  endfacet
  facet normal -1 -0 0
    outer loop
      vertex 0 53 28
      vertex 0 27 12
      vertex 0 27 28
    endloop
  endfacet
  facet normal 0 1 0
    outer loop
      vertex 100 80 7
      vertex 100 80 0
      vertex 10 80 7
    endloop
  endfacet
  facet normal 0 1 -0
    outer loop
      vertex 10 80 7
      vertex 0 80 28
      vertex 10 80 28
    endloop
  endfacet
  facet normal 0 1 0
    outer loop
      vertex 10 80 7
      vertex 0 80 0
      vertex 0 80 28
    endloop
  endfacet
  facet normal 0 1 0
    outer loop
      vertex 0 80 0
      vertex 10 80 7
      vertex 100 80 0
    endloop
  endfacet
  facet normal 0 -1 0
    outer loop
      vertex 0 0 28
      vertex 10 0 7
      vertex 10 0 28
    endloop
  endfacet
  facet normal 0 -1 0
    outer loop
      vertex 0 0 0
      vertex 10 0 7
      vertex 0 0 28
    endloop
  endfacet
  facet normal 0 -1 0
    outer loop
      vertex 100 0 0
      vertex 10 0 7
      vertex 0 0 0
    endloop
  endfacet
  facet normal 0 -1 0
    outer loop
      vertex 10 0 7
      vertex 100 0 0
      vertex 100 0 7
    endloop
  endfacet
  facet normal -1 0 0
    outer loop
      vertex 65 25 2
      vertex 65 55 7
      vertex 65 55 2
    endloop
  endfacet
  facet normal -1 -0 0
    outer loop
      vertex 65 55 7
      vertex 65 25 2
      vertex 65 25 7
    endloop
  endfacet
  facet normal -0 0 1
    outer loop
      vertex 0 54 2
      vertex 10 26 2
      vertex 10 54 2
    endloop
  endfacet
  facet normal 0 0 1
    outer loop
      vertex 10 26 2
      vertex 0 54 2
      vertex 0 26 2
    endloop
  endfacet
  facet normal 0 0 1
    outer loop
      vertex 10 54 2
      vertex 65 55 2
      vertex 10 55 2
    endloop
  endfacet
  facet normal 0 0 1
    outer loop
      vertex 65 55 2
      vertex 10 54 2
      vertex 65 25 2
    endloop
  endfacet
  facet normal -0 0 1
    outer loop
      vertex 10 26 2
      vertex 65 25 2
      vertex 10 54 2
    endloop
  endfacet
  facet normal 0 0 1
    outer loop
      vertex 65 25 2
      vertex 10 26 2
      vertex 10 25 2
    endloop
  endfacet
  facet normal 0 -1 0
    outer loop
      vertex 10 55 2
      vertex 65 55 7
      vertex 10 55 7
    endloop
  endfacet
  facet normal 0 -1 -0
    outer loop
      vertex 65 55 7
      vertex 10 55 2
      vertex 65 55 2
    endloop
  endfacet
  facet normal 0 1 -0
    outer loop
      vertex 65 25 2
      vertex 10 25 7
      vertex 65 25 7
    endloop
  endfacet
  facet normal 0 1 0
    outer loop
      vertex 10 25 7
      vertex 65 25 2
      vertex 10 25 2
    endloop
  endfacet
  facet normal 1 0 0
    outer loop
      vertex 10 4 28
      vertex 10 0 28
      vertex 10 4 12
    endloop
  endfacet
  facet normal 1 0 0
    outer loop
      vertex 10 53 28
      vertex 10 27 28
      vertex 10 53 12
    endloop
  endfacet
  facet normal 1 0 0
    outer loop
      vertex 10 76 12
      vertex 10 80 28
      vertex 10 76 28
    endloop
  endfacet
  facet normal 1 0 0
    outer loop
      vertex 10 80 28
      vertex 10 76 12
      vertex 10 80 7
    endloop
  endfacet
  facet normal 1 0 0
    outer loop
      vertex 10 76 12
      vertex 10 55 7
      vertex 10 80 7
    endloop
  endfacet
  facet normal 1 0 0
    outer loop
      vertex 10 54 2
      vertex 10 55 7
      vertex 10 54 10
    endloop
  endfacet
  facet normal 1 0 0
    outer loop
      vertex 10 76 12
      vertex 10 54 10
      vertex 10 55 7
    endloop
  endfacet
  facet normal 1 -0 0
    outer loop
      vertex 10 53 12
      vertex 10 54 10
      vertex 10 76 12
    endloop
  endfacet
  facet normal 1 0 0
    outer loop
      vertex 10 27 12
      vertex 10 53 12
      vertex 10 27 28
    endloop
  endfacet
  facet normal 1 0 0
    outer loop
      vertex 10 53 12
      vertex 10 27 12
      vertex 10 54 10
    endloop
  endfacet
  facet normal 1 0 0
    outer loop
      vertex 10 27 12
      vertex 10 26 10
      vertex 10 54 10
    endloop
  endfacet
  facet normal 1 0 0
    outer loop
      vertex 10 26 10
      vertex 10 25 7
      vertex 10 26 2
    endloop
  endfacet
  facet normal 1 -0 0
    outer loop
      vertex 10 4 12
      vertex 10 26 10
      vertex 10 27 12
    endloop
  endfacet
  facet normal 1 0 0
    outer loop
      vertex 10 4 12
      vertex 10 25 7
      vertex 10 26 10
    endloop
  endfacet
  facet normal 1 0 0
    outer loop
      vertex 10 4 12
      vertex 10 0 7
      vertex 10 25 7
    endloop
  endfacet
  facet normal 1 0 0
    outer loop
      vertex 10 0 7
      vertex 10 4 12
      vertex 10 0 28
    endloop
  endfacet
  facet normal 1 0 0
    outer loop
      vertex 10 55 7
      vertex 10 54 2
      vertex 10 55 2
    endloop
  endfacet
  facet normal 1 0 0
    outer loop
      vertex 10 26 2
      vertex 10 25 7
      vertex 10 25 2
    endloop
  endfacet
  facet normal -0 0 1
    outer loop
      vertex 0 80 28
      vertex 10 76 28
      vertex 10 80 28
    endloop
  endfacet
  facet normal 0 0 1
    outer loop
      vertex 10 76 28
      vertex 0 80 28
      vertex 0 76 28
    endloop
  endfacet
  facet normal -0 0 1
    outer loop
      vertex 0 4 28
      vertex 10 0 28
      vertex 10 4 28
    endloop
  endfacet
  facet normal 0 0 1
    outer loop
      vertex 10 0 28
      vertex 0 4 28
      vertex 0 0 28
    endloop
  endfacet
  facet normal -0 0 1
    outer loop
      vertex 0 53 28
      vertex 10 27 28
      vertex 10 53 28
    endloop
  endfacet
  facet normal 0 0 1
    outer loop
      vertex 10 27 28
      vertex 0 53 28
      vertex 0 27 28
    endloop
  endfacet
  facet normal 0 0 -1
    outer loop
      vertex 0 26 10
      vertex 10 54 10
      vertex 10 26 10
    endloop
  endfacet
  facet normal -0 0 -1
    outer loop
      vertex 10 54 10
      vertex 0 26 10
      vertex 0 54 10
    endloop
  endfacet
  facet normal 0 -1 0
    outer loop
      vertex 0 54 2
      vertex 10 54 10
      vertex 0 54 10
    endloop
  endfacet
  facet normal 0 -1 -0
    outer loop
      vertex 10 54 10
      vertex 0 54 2
      vertex 10 54 2
    endloop
  endfacet
  facet normal 0 1 -0
    outer loop
      vertex 10 26 2
      vertex 0 26 10
      vertex 10 26 10
    endloop
  endfacet
  facet normal 0 1 0
    outer loop
      vertex 0 26 10
      vertex 10 26 2
      vertex 0 26 2
    endloop
  endfacet
  facet normal -0 0 1
    outer loop
      vertex 0 27 12
      vertex 10 4 12
      vertex 10 27 12
    endloop
  endfacet
  facet normal 0 0 1
    outer loop
      vertex 10 4 12
      vertex 0 27 12
      vertex 0 4 12
    endloop
  endfacet
  facet normal 0 -1 0
    outer loop
      vertex 0 27 12
      vertex 10 27 28
      vertex 0 27 28
    endloop
  endfacet
  facet normal 0 -1 -0
    outer loop
      vertex 10 27 28
      vertex 0 27 12
      vertex 10 27 12
    endloop
  endfacet
  facet normal 0 1 -0
    outer loop
      vertex 10 4 12
      vertex 0 4 28
      vertex 10 4 28
    endloop
  endfacet
  facet normal 0 1 0
    outer loop
      vertex 0 4 28
      vertex 10 4 12
      vertex 0 4 12
    endloop
  endfacet
  facet normal -0 0 1
    outer loop
      vertex 0 76 12
      vertex 10 53 12
      vertex 10 76 12
    endloop
  endfacet
  facet normal 0 0 1
    outer loop
      vertex 10 53 12
      vertex 0 76 12
      vertex 0 53 12
    endloop
  endfacet
  facet normal 0 -1 0
    outer loop
      vertex 0 76 12
      vertex 10 76 28
      vertex 0 76 28
    endloop
  endfacet
  facet normal 0 -1 -0
    outer loop
      vertex 10 76 28
      vertex 0 76 12
      vertex 10 76 12
    endloop
  endfacet
  facet normal 0 1 -0
    outer loop
      vertex 10 53 12
      vertex 0 53 28
      vertex 10 53 28
    endloop
  endfacet
  facet normal 0 1 0
    outer loop
      vertex 0 53 28
      vertex 10 53 12
      vertex 0 53 12
    endloop
  endfacet
endsolid OpenSCAD_Model
